<svg xmlns="http://www.w3.org/2000/svg" version="1.1" xmlns:xlink="http://www.w3.org/1999/xlink" xmlns:svgjs="http://svgjs.dev/svgjs" width="100%" height="100%" viewBox="0 0 1000 600"><rect width="1000" height="600" x="0" y="0" fill="#f4efea"/><g><circle r="166.66666666666666" cx="338.32311503092444" cy="360.5453496443902" fill="#7d141d" transform="matrix(0.7281986635942626,0,0,0.7281986635942626,0,37.451358445603574)"/><path d="M273.8993240778349 435.5453549070575Q259.63852142856683 435.5453549070575 251.95087980902525 425.1511175693933Q244.24049368765066 414.756880231729 244.24049368765066 394.10487256739833L244.24049368765066 394.10487256739833Q244.24049368765066 370.85999169410974 253.338294420836 353.75612631572136Q262.43609515402136 336.62951643549997 276.1055407556323 327.6226937096464Q289.7749863572433 318.61587098379295 302.8758194130302 318.61587098379295L302.8758194130302 318.61587098379295Q311.3822630985585 318.61587098379295 317.86444612095306 321.98205725507154Q324.3238846415146 325.3254990245171 324.3238846415146 332.0578715670743L324.3238846415146 332.0578715670743Q324.3238846415146 336.78872794833063 320.5710418390757 342.52034241023745L320.5710418390757 342.52034241023745Q319.57028375842526 343.83952351654926 318.9334377071023 344.40813606237344Q318.27384715394635 344.9767486081975 317.295833575129 344.9767486081975L317.295833575129 344.9767486081975Q316.13586398164784 344.9767486081975 315.6582294431556 343.9305015238811Q315.1578504028304 342.8615099377319 314.9986388899997 341.3831173185893Q314.83942737716893 339.9047246994466 314.65747136250525 339.2451341462907L314.65747136250525 339.2451341462907Q313.6794577836878 333.6954756990477 309.5172139482555 330.48850094059986Q305.33222561099024 327.30427068398495 297.8037955042794 327.30427068398495L297.8037955042794 327.30427068398495Q284.5437509356617 327.30427068398495 275.60516171530713 337.3800849959877Q266.6893169967855 347.43315480615746 262.3451171466895 362.17159199391773Q258.0009172965935 376.910029181678 258.0009172965935 390.8296643034516L258.0009172965935 390.8296643034516Q258.0009172965935 406.728071084693 263.891743271331 415.393726283052Q269.8053137479015 424.082125983244 280.60895211855905 424.082125983244L280.60895211855905 424.082125983244Q289.45656333158183 424.082125983244 297.2351829584553 418.3505115213373Q305.0138025853288 412.6188970594305 310.24503800691036 401.97447020160365L310.24503800691036 401.97447020160365Q311.2230515857277 400.1776545567995 312.2010651645452 400.1776545567995L312.2010651645452 400.1776545567995Q313.0198672305319 400.1776545567995 313.0198672305319 401.97447020160365L313.0198672305319 401.97447020160365Q313.0198672305319 402.952483780421 312.8606557177011 403.9304973592385Q312.70144420487037 404.93125543988884 312.54223269203965 405.40888997838107L312.54223269203965 405.40888997838107Q310.0858264940796 414.0972896785731 304.3542120321728 420.966129232128Q298.62259757026607 427.8577132875159 290.59378842322997 431.7015340972867Q282.5649792761939 435.5453549070575 273.8993240778349 435.5453549070575L273.8993240778349 435.5453549070575ZM349.8659601999325 434.0669622879149Q349.54753717427104 434.0669622879149 349.2973476541084 433.8167727677523Q349.0471581339458 433.5893277494227 349.0471581339458 433.08894870909745L349.0471581339458 433.08894870909745Q349.0471581339458 431.76976760278563 350.4573172475896 429.65452893232003Q351.8447318594003 427.51654576002153 353.14116846387924 426.2201091555426L353.14116846387924 426.2201091555426Q355.9387421893337 423.76370295758255 357.3261568011445 422.03512081827733Q358.7135714129553 420.3065386789721 359.87354100643637 417.03133041502537Q361.01076609808456 413.7561221510786 362.1479911897327 407.3876616378489L362.1479911897327 407.3876616378489L375.2488242455196 331.2390695010876L364.12676284920053 331.2390695010876Q352.1631548850618 331.2390695010876 347.5915100166361 333.9229207173773Q342.99712064637754 336.62951643549997 342.99712064637754 343.5211004908878L342.99712064637754 343.5211004908878Q342.99712064637754 348.25195687214426 344.5437467710191 351.2997201177613Q346.1131173974935 354.3247388615454 346.1131173974935 354.98432941470134L346.1131173974935 354.98432941470134Q346.1131173974935 356.28076601918025 344.47551326552014 359.0783397446348Q342.8379091335468 361.8531689682563 340.69992596124825 364.0593856460537Q338.58468729078265 366.26560232385117 337.26550618447084 366.26560232385117L337.26550618447084 366.26560232385117Q336.7651271441456 366.26560232385117 336.28749260565337 365.62875627252816L336.28749260565337 365.62875627252816Q335.1275230121722 363.64998461306044 334.3996989535174 360.3747763491137Q333.6718748948626 357.09956808516694 333.6718748948626 353.50593679555874L333.6718748948626 353.50593679555874Q333.6718748948626 343.6803120037186 338.58468729078265 336.15188189700774Q343.4974996867028 328.60070728846387 352.50432241255623 324.4384634530316Q361.5111451384097 320.2534751157663 373.4520086007155 320.2534751157663L373.4520086007155 320.2534751157663L401.63244637175706 320.2534751157663Q410.1388900572854 320.2534751157663 414.73327942754395 319.02527201678635Q419.3049242959696 317.79706891780626 421.03350643527483 315.18145120701547Q422.7393440727471 312.5658334962247 422.7393440727471 308.13065563879684L422.7393440727471 308.13065563879684Q422.7393440727471 303.2178432428767 421.28369595543745 300.2838025064245Q419.80530333629486 297.32701726813923 419.80530333629486 296.849382729647L419.80530333629486 296.849382729647Q419.80530333629486 295.68941313616585 421.4429074682682 292.91458391254434Q423.0805116002415 290.1170101870899 425.1275167652082 287.84256000379355Q427.17452193017493 285.54536531866427 428.47095853465385 285.54536531866427L428.47095853465385 285.54536531866427Q429.28976060064053 285.54536531866427 429.4717166153042 286.0229998571565L429.4717166153042 286.0229998571565Q432.4057573517565 290.77660074024584 432.4057573517565 298.8054098872818L432.4057573517565 298.8054098872818Q432.4057573517565 308.4718231662913 427.49294495583644 315.84104176017144Q422.58013255991636 323.2102603540515 413.505076328564 327.2132926766531Q404.4072755953786 331.2390695010876 392.28445611840914 331.2390695010876L392.28445611840914 331.2390695010876L387.2124322096583 331.2390695010876L372.7924180475595 415.5756822977157Q372.4739950218981 418.1913000085065 371.6551929559114 419.73792613314805Q370.8363908899247 421.3072967596225 369.3579982707821 423.10411240442664L369.3579982707821 423.10411240442664L369.3579982707821 423.4225354300881Q372.3147835090673 424.58250502356924 375.90841479867555 424.58250502356924L375.90841479867555 424.58250502356924Q378.0463979709741 424.58250502356924 380.0934031359408 423.76370295758255Q382.1404083009075 422.94490089159586 382.79999885406346 422.94490089159586L382.79999885406346 422.94490089159586Q383.77801243288087 422.94490089159586 383.77801243288087 423.76370295758255L383.77801243288087 423.76370295758255Q383.77801243288087 425.06013956206147 382.458831326569 426.53853218120406L382.458831326569 426.53853218120406Q378.8652000369608 430.6325425111375 376.3178158316689 432.3611246504426Q373.79317612820995 434.0669622879149 371.6551929559114 434.0669622879149L371.6551929559114 434.0669622879149Q369.8583773111073 434.0669622879149 365.6051554683431 432.770525683436L365.6051554683431 432.770525683436Q361.01076609808456 431.4513445771242 359.2139504532804 431.4513445771242L359.2139504532804 431.4513445771242Q356.9167557681511 431.4513445771242 352.98195695104846 433.08894870909745L352.98195695104846 433.08894870909745Q350.3663392402577 434.0669622879149 349.8659601999325 434.0669622879149L349.8659601999325 434.0669622879149Z " fill="#f4efea" transform="matrix(0.7281986635942626,0,0,0.7281986635942626,0,37.451358445603574)"/><path d="M609.1404876620247 390.8295266227588Q599.1309098331931 390.8295266227588 593.7349970642217 383.5338694173743Q588.3231200562888 376.23821221198983 588.3231200562888 361.74268323498956L588.3231200562888 361.74268323498956Q588.3231200562888 345.4272310163836 594.7088156408704 333.4221233173701Q601.0945112254519 321.40105137939526 610.6890188412858 315.07921275065945Q620.2835264571197 308.7573741219237 629.4789280989172 308.7573741219237L629.4789280989172 308.7573741219237Q635.4495534705011 308.7573741219237 639.9993615745154 311.1200814882189Q644.5332054395684 313.46682461555264 644.5332054395684 318.192239348143L644.5332054395684 318.192239348143Q644.5332054395684 321.51280105212544 641.8991060109284 325.53578927041184L641.8991060109284 325.53578927041184Q641.1966794966245 326.4617151301762 640.7496808057037 326.86082110421256Q640.2867178758215 327.25992707824895 639.600255600479 327.25992707824895L639.600255600479 327.25992707824895Q638.7860794134449 327.25992707824895 638.4508303952543 326.525572086022Q638.0996171381024 325.7752528548337 637.9878674653722 324.7375773223392Q637.876117792642 323.69990178984466 637.7484038809505 323.23693885996244L637.7484038809505 323.23693885996244Q637.0619416056079 319.3416645533677 634.1404858756619 317.09070685980265Q631.2030659067543 314.8557134051991 625.9189028105129 314.8557134051991L625.9189028105129 314.8557134051991Q616.6117514959853 314.8557134051991 610.3378055841338 321.9278712651232Q604.0798239112439 328.98406488608595 601.0306542696062 339.32889173310815Q597.9814846279685 349.67371858013036 597.9814846279685 359.44383282454015L597.9814846279685 359.44383282454015Q597.9814846279685 370.6028358585965 602.1162225189851 376.68521090291057Q606.2669246489631 382.783550186186 613.8499381556537 382.783550186186L613.8499381556537 382.783550186186Q620.0600271116593 382.783550186186 625.5197968364766 378.7605619678996Q630.979566561294 374.7375737496132 634.6513415224283 367.2663099156527L634.6513415224283 367.2663099156527Q635.3378037977709 366.0051350376978 636.0242660731134 366.0051350376978L636.0242660731134 366.0051350376978Q636.5989786757257 366.0051350376978 636.5989786757257 367.2663099156527L636.5989786757257 367.2663099156527Q636.5989786757257 367.9527721909952 636.4872290029955 368.63923446633777Q636.3754793302653 369.34166098064173 636.2637296575351 369.6769099988322L636.2637296575351 369.6769099988322Q634.5395918496981 375.7752492821076 630.5166036314117 380.5964494484668Q626.4936154131253 385.43361385378734 620.8582390597321 388.1315702382731Q615.2228627063388 390.8295266227588 609.1404876620247 390.8295266227588L609.1404876620247 390.8295266227588ZM644.5332054395684 390.8295266227588Q643.7349934914957 390.8295266227588 643.7349934914957 390.2548140201465L643.7349934914957 390.2548140201465Q643.8467431642259 389.5683517448039 644.4853127226841 387.317394051239Q645.1079180421807 385.0824005966354 645.5708809720629 382.783550186186L645.5708809720629 382.783550186186Q646.2573432474054 379.68648782766394 650.2803314656918 355.5485585179454L650.2803314656918 355.5485585179454Q650.0568321202314 356.8097333959003 653.1538944787535 338.06771685515326L653.1538944787535 338.06771685515326Q655.3409952164727 324.96107666779955 659.076627133453 314.61624982077734Q662.8122590504332 304.2714229737551 669.485310936321 297.72608499955896L669.485310936321 297.72608499955896Q673.2688355701856 294.16605971115473 676.7809681417054 292.7292782046238Q680.2771364742639 291.292496698093 684.3001246925503 290.7177840954806L684.3001246925503 290.7177840954806Q685.6890134821969 290.60603442275044 687.1736877056121 290.03132182013815Q688.6743261679887 289.45660921752574 688.8978255134491 289.45660921752574L688.8978255134491 289.45660921752574Q689.7120017004833 289.45660921752574 689.7120017004833 290.3665708383287L689.7120017004833 290.3665708383287Q689.7120017004833 291.6277457162835 687.6366506354942 293.7030967812725L687.6366506354942 293.7030967812725Q686.5989751029997 294.740772313767 685.6890134821969 295.0760213319576Q684.7630876224325 295.4272345891096 683.7892690457838 295.5389842618398Q682.8154504691352 295.65073393457 682.2407378665227 295.77844784626154L682.2407378665227 295.77844784626154Q679.0159615963091 296.2254465371823 676.7809681417054 297.550478370983Q674.5300104481405 298.8755102047836 672.1194103649609 301.7490732178454L672.1194103649609 301.7490732178454Q667.5217095440621 307.4961992439688 665.3984657621888 315.0313200337751Q663.2752219803153 322.55047658461996 661.4393344997482 333.9329789641367L661.4393344997482 333.9329789641367Q660.9763715698659 337.60475392527115 660.625158312714 339.32889173310815L660.625158312714 339.32889173310815L658.1028085568043 355.42084460625375L658.2145582295345 355.42084460625375Q663.6104709985059 346.11369329172607 669.9323096272417 340.5421738941787Q676.2541482559775 334.9706544966312 680.8518490768763 334.9706544966312L680.8518490768763 334.9706544966312Q685.6890134821969 334.9706544966312 685.6890134821969 341.9789554007095L685.6890134821969 341.9789554007095Q685.6890134821969 345.2037316709232 684.7630876224325 350.24843118274265L684.7630876224325 350.24843118274265Q682.5759868847133 361.16797063237726 682.5759868847133 361.16797063237726L682.5759868847133 361.16797063237726Q679.2554251807309 378.074099692557 679.2554251807309 380.5964494484668L679.2554251807309 380.5964494484668Q679.2554251807309 382.6718005134558 680.8518490768763 382.6718005134558L680.8518490768763 382.6718005134558Q682.8154504691352 382.6718005134558 684.427838604242 380.0855938017002Q686.0242625003874 377.4993870899447 687.8761142199161 373.23693528723646L687.8761142199161 373.23693528723646Q687.9878638926463 373.1251856145063 688.2752201939524 372.550473011894Q688.5625764952586 371.9757604092816 689.0255394251408 371.9757604092816L689.0255394251408 371.9757604092816Q689.8237513732134 371.9757604092816 689.8237513732134 373.36464919892813L689.8237513732134 373.36464919892813L689.6002520277531 375.2005366794953Q688.7860758407189 379.3352745705119 686.3116188016935 382.959156814762Q683.8531260016297 386.58303905901204 680.8039563599918 388.7062828408854Q677.7547867183541 390.8295266227588 675.2324369624445 390.8295266227588L675.2324369624445 390.8295266227588Q671.0817348324664 390.8295266227588 671.0817348324664 384.28418864856263L671.0817348324664 384.28418864856263Q671.0817348324664 381.0594123783489 671.8320540636548 376.68521090291057Q672.5823732948431 372.3269736664336 673.9552978455281 365.76567145327596L673.9552978455281 365.76567145327596Q675.3441866351747 359.2203334790799 676.094505866363 355.0855955880632Q676.8288608585899 350.9508576970466 676.9565747702815 347.6143317541028L676.9565747702815 347.6143317541028Q676.9565747702815 345.4272310163836 676.6053615131295 344.6290190683109Q676.2541482559775 343.81484288127666 674.6577243598322 343.81484288127666L674.6577243598322 343.81484288127666Q671.0817348324664 343.81484288127666 667.0108538972956 348.4764006580213Q662.9240087231634 353.12199419580446 659.7151966919112 359.9067957544224Q656.4904204216974 366.6915973130403 655.3409952164727 372.550473011894L655.3409952164727 372.550473011894L653.5051077359055 382.56005084072564Q653.0421448060233 385.5453635265175 650.0568321202314 388.1794629551575Q647.0715194344396 390.8295266227588 644.5332054395684 390.8295266227588L644.5332054395684 390.8295266227588ZM712.0140435296345 328.40935228347354Q710.8646183244099 328.40935228347354 710.9763679971401 327.25992707824895L710.9763679971401 327.25992707824895L712.349292547825 319.21395064167604Q712.9240051504374 315.8933889376936 714.8237495868505 314.10539417401077Q716.7234940232635 312.31739941032794 719.5970570363252 312.31739941032794L719.5970570363252 312.31739941032794L720.0600199662074 312.31739941032794Q720.7464822415499 312.31739941032794 720.9220888701259 312.55686299474974Q721.0817312597404 312.7803623402101 720.9699815870102 313.46682461555264L720.9699815870102 313.46682461555264L719.7088067090554 321.40105137939526Q719.2458437791732 324.625827649609 717.2982066258758 326.525572086022Q715.3346052336169 328.40935228347354 712.4610422205552 328.40935228347354L712.4610422205552 328.40935228347354L712.0140435296345 328.40935228347354ZM705.2292419710166 390.8295266227588Q701.5415027709207 390.8295266227588 701.5415027709207 385.5453635265175L701.5415027709207 385.5453635265175Q701.5415027709207 382.8952998589162 702.2439292852247 379.4470242432421L702.2439292852247 379.4470242432421L707.7515917269262 348.7637569593275Q708.2145546568084 345.7784442735355 708.2145546568084 345.07601775923155L708.2145546568084 345.07601775923155Q708.2145546568084 343.35187995139455 707.1768791243139 343.35187995139455L707.1768791243139 343.35187995139455Q705.8039545736289 343.35187995139455 703.84035318137 345.53898068911377Q701.8927160280726 347.726081426833 699.5938656176232 352.43553192046187L699.5938656176232 352.43553192046187Q699.1309026877411 353.8244207101084 698.4444404123986 353.8244207101084L698.4444404123986 353.8244207101084Q697.757978137056 353.8244207101084 697.757978137056 352.6749955048837L697.757978137056 352.6749955048837Q697.757978137056 349.9131821645522 700.2324351760815 345.6028376449596Q702.6909279761454 341.292493125367 706.3148102203954 338.1315738109991Q709.9386924646454 334.9706544966312 713.0357548231676 334.9706544966312L713.0357548231676 334.9706544966312Q716.6117443505333 334.9706544966312 716.6117443505333 340.0313182474121L716.6117443505333 340.0313182474121Q716.6117443505333 342.4419183305917 715.9093178362293 346.3531568761479L715.9093178362293 346.3531568761479L709.9386924646454 379.55877391597227L709.7151931191851 381.0594123783489Q709.7151931191851 382.3205872563038 710.7369044127182 382.3205872563038L710.7369044127182 382.3205872563038Q712.1257932023647 382.3205872563038 714.0734303556621 380.0855938017002Q716.0370317479209 377.83463610813527 718.3358821583703 373.23693528723646L718.3358821583703 373.23693528723646Q718.9105947609827 371.9757604092816 719.485307363595 371.9757604092816L719.485307363595 371.9757604092816Q720.1717696389375 371.9757604092816 720.1717696389375 373.4763988716583L720.1717696389375 373.4763988716583Q720.1717696389375 376.11049830029816 717.6973125999122 380.3090931471606Q715.2228555608868 384.507687994023 711.6628302724826 387.6686073083909Q708.1028049840783 390.8295266227588 705.2292419710166 390.8295266227588L705.2292419710166 390.8295266227588ZM731.3148084340324 390.8295266227588Q730.8518455041502 390.8295266227588 730.5644892028441 390.6539199941828Q730.2771329015379 390.47831336560677 730.2771329015379 390.2548140201465L730.2771329015379 390.2548140201465Q730.2771329015379 389.9036007629945 730.9795594158419 388.75417555776977Q731.6660216911845 387.60475035254507 732.0012707093749 385.5453635265175L732.0012707093749 385.5453635265175Q732.4642336392571 383.13476344333793 732.8154468964091 381.12326933419473Q733.1506959145996 379.11177522505153 733.5019091717517 377.38763741721453L733.5019091717517 377.38763741721453Q736.3754721848134 361.6309335622594 737.349290761462 355.3729518893694Q738.3231093381107 349.09900597751795 738.2113596653805 346.22544296445625L738.2113596653805 346.22544296445625Q738.2113596653805 344.740768741041 737.9878603199202 344.0543064656985Q737.7483967354984 343.35187995139455 736.9501847874257 343.35187995139455L736.9501847874257 343.35187995139455Q735.9125092549311 343.35187995139455 734.3001211198243 345.07601775923155Q732.7036972236789 346.80015556706866 731.3148084340324 349.09900597751795L731.3148084340324 349.09900597751795Q730.74009583142 350.13668151001247 730.2771329015379 350.8870007412009Q729.8301342106172 351.6373199723892 729.542777909311 351.97256899057976Q729.2554216080049 352.3237822477317 728.9042083508529 352.3237822477317L728.9042083508529 352.3237822477317Q728.4412454209707 352.3237822477317 728.2177460755104 351.97256899057976Q727.9782824910885 351.6373199723892 727.9782824910885 351.0626073697768L727.9782824910885 351.0626073697768Q727.9782824910885 348.8755066320577 730.452739530114 344.96426808650136Q732.9271965691393 341.05302954094515 736.3116152289675 338.0198241382689Q739.7119981277573 334.9706544966312 742.3460975563971 334.9706544966312L742.3460975563971 334.9706544966312Q744.5331982941163 334.9706544966312 745.3952671980348 336.6947923044682Q746.2573361019535 338.4189301123053 746.2573361019535 342.09070507343966L746.2573361019535 342.09070507343966Q746.2573361019535 347.1513688242206 744.0702353642342 355.7720578634058L744.0702353642342 355.7720578634058L744.309698948656 355.7720578634058Q755.2292383982906 334.9706544966312 764.5363897128183 334.9706544966312L764.5363897128183 334.9706544966312Q766.9469897959978 334.9706544966312 768.2720216297985 336.2956863304319Q769.5970534635992 337.60475392527115 769.5970534635992 340.0313182474121L769.5970534635992 340.0313182474121Q769.5970534635992 342.5536680033219 768.4955209752588 345.2037316709232Q767.40995272588 347.8378310995632 765.861421546619 349.56196890740017Q764.3128903673579 351.28610671523717 763.0357512504416 351.28610671523717L763.0357512504416 351.28610671523717Q762.2375393023689 351.28610671523717 762.4610386478292 350.24843118274265L762.4610386478292 350.24843118274265Q762.8122519049813 348.6520072865973 762.8122519049813 347.726081426833L762.8122519049813 347.726081426833Q762.8122519049813 344.96426808650136 759.8269392191893 344.96426808650136L759.8269392191893 344.96426808650136Q756.2669139307851 344.96426808650136 752.6909244034194 349.09900597751795Q749.1308991150152 353.249708107496 746.4329427305294 359.2203334790799Q743.7349863460437 365.19095885066366 742.6973108135492 370.1398729287144L742.6973108135492 370.1398729287144Q741.3243862628641 375.4240360249557 740.973173005712 381.1711620510791L740.973173005712 381.1711620510791Q740.7496736602517 383.3582627887983 738.9616788965689 385.59325624340187Q737.173684132886 387.8442139369669 734.8748337224366 389.3288881603822Q732.5759833119873 390.8295266227588 731.3148084340324 390.8295266227588L731.3148084340324 390.8295266227588ZM775.2324298169925 390.8295266227588Q769.3575898791773 390.8295266227588 769.3575898791773 379.68648782766394L769.3575898791773 379.68648782766394Q769.3575898791773 368.9904477234897 774.019147655922 358.58176392062165Q778.6807054326665 348.1890443567151 786.5989679575476 341.5798494266732Q794.5331947213904 334.9706544966312 803.7285963631879 334.9706544966312L803.7285963631879 334.9706544966312Q808.4380468568169 334.9706544966312 811.8863224724909 336.45532872004645L811.8863224724909 336.45532872004645Q810.4016482490757 342.3301686578615 809.8269356464633 345.07601775923155L809.8269356464633 345.07601775923155L807.4163355632837 357.4961956712428Q804.1915592930701 372.21522399370343 803.5050970177275 377.83463610813527L803.5050970177275 377.83463610813527Q803.3933473449973 378.6488122951694 803.3933473449973 379.7982375003941L803.3933473449973 379.7982375003941Q803.3933473449973 382.3205872563038 804.8780215684126 382.3205872563038L804.8780215684126 382.3205872563038Q806.7139090489798 382.3205872563038 808.3262971840867 379.97384412897003Q809.9386853191935 377.6111367626749 812.0140363841825 373.23693528723646L812.0140363841825 373.23693528723646Q812.1257860569127 373.1251856145063 812.4131423582189 372.550473011894Q812.700498659525 371.9757604092816 813.1634615894072 371.9757604092816L813.1634615894072 371.9757604092816Q813.8499238647497 371.9757604092816 813.8499238647497 373.36464919892813L813.8499238647497 373.36464919892813L813.610460280328 375.2005366794953Q812.8122483322552 378.98406131336 810.3377912932298 382.6718005134558Q807.8633342542045 386.3435754745902 804.8301288515282 388.59453316815524Q801.7809592098905 390.8295266227588 799.3703591267109 390.8295266227588L799.3703591267109 390.8295266227588Q795.3473709084245 390.8295266227588 795.3473709084245 384.28418864856263L795.3473709084245 384.28418864856263Q795.3473709084245 381.7458746536915 795.9220835110369 379.11177522505153L795.9220835110369 379.11177522505153L797.8697206643343 369.1021973962199L797.7579709916041 369.1021973962199Q792.234344310941 378.7605619678996 785.976362638051 384.7950442953292Q779.7024167261995 390.8295266227588 775.2324298169925 390.8295266227588L775.2324298169925 390.8295266227588ZM780.6283425859639 381.41062563550094Q783.8531188561776 381.41062563550094 788.0357494640785 376.39785460160437Q792.234344310941 371.4010478066693 795.8582265551911 364.16924755713063Q799.4821087994411 356.9214830686305 800.8550333501262 351.174357042507L800.8550333501262 351.174357042507L802.6909208306934 343.81484288127666Q799.2426452150193 341.51599247082737 795.4591205811547 341.51599247082737L795.4591205811547 341.51599247082737Q790.510206503104 341.51599247082737 786.4393255679332 347.2152257800664Q782.3524803938009 352.8984948503441 780.0536299833516 361.00832824276273Q777.7547795729022 369.1021973962199 777.7547795729022 375.66349960937754L777.7547795729022 375.66349960937754Q777.7547795729022 378.53706262243924 778.3933491313603 379.97384412897003Q779.0159544508571 381.41062563550094 780.6283425859639 381.41062563550094L780.6283425859639 381.41062563550094ZM818.4476246856485 435.54535995379155Q813.8499238647497 435.54535995379155 810.6890045503818 433.0709029147661Q807.5280852360139 430.5964458757408 805.9795540567529 426.8608139587605Q804.4150586385304 423.1251820417803 804.4150586385304 419.2139434962241L804.4150586385304 419.2139434962241Q804.4150586385304 415.43041886235943 805.7400904723311 413.1794611687945Q807.0651223061317 410.9444677141908 808.725403158123 410.0185418544266Q810.4016482490757 409.1085802336236 811.3116098698785 409.1085802336236L811.3116098698785 409.1085802336236Q812.0140363841825 409.1085802336236 812.0140363841825 410.0185418544266L812.0140363841825 410.0185418544266Q812.0140363841825 419.1021938234939 814.7598854855527 423.65200192750825Q817.5216988258842 428.1858457925612 823.9552871273501 428.1858457925612L823.9552871273501 428.1858457925612Q833.6136516990299 428.1858457925612 838.4508161043503 418.4157315481513L838.4508161043503 418.4157315481513Q840.3984532576478 414.3927433298649 841.8352347641786 407.67179872709283Q843.2720162707095 400.95085412432064 845.7943660266193 385.30589994209566L845.7943660266193 385.30589994209566Q846.7202918863835 379.11177522505153 849.370355553985 370.49108618586644L849.370355553985 370.49108618586644L849.2426416422933 370.2516226014446Q843.1602665979793 380.13348651858456 837.34928361601 385.4815065706717Q831.5542648730022 390.8295266227588 827.1800633975638 390.8295266227588L827.1800633975638 390.8295266227588Q821.20943802598 390.8295266227588 821.20943802598 379.55877391597227L821.20943802598 379.55877391597227Q821.20943802598 369.1021973962199 825.8071388468787 358.7094778323133Q830.4048396677775 348.3007940294453 838.2752094757744 341.62774214355755Q846.1455792837712 334.9706544966312 855.2292312528385 334.9706544966312L855.2292312528385 334.9706544966312Q859.8269320737373 334.9706544966312 863.4987070348717 336.8065419771984L863.4987070348717 336.8065419771984L861.8863188997649 342.09070507343966Q858.5657571957825 354.3991333127207 856.9533690606755 362.60475213890805Q855.3409809255687 370.8263352040569 854.3033053930742 378.7605619678996L854.3033053930742 378.7605619678996Q853.6168431177317 383.70947604595034 853.7285927904619 383.2465131160681L853.7285927904619 383.2465131160681Q852.2439185670466 395.0760141865056 851.0306364059762 401.23821042562685Q849.8173542449057 407.38444242578663 847.8697170916082 411.9182862908396Q845.9220799383108 416.46809439485395 842.234340738215 421.06579521575276L842.234340738215 421.06579521575276Q836.8384279692435 427.722882862679 830.4048396677775 431.63412140823533Q823.9552871273501 435.54535995379155 818.4476246856485 435.54535995379155L818.4476246856485 435.54535995379155ZM832.5759761665353 381.41062563550094Q836.1519656939009 381.41062563550094 840.5740598862238 375.8869989548378Q844.9961540785465 370.36337227417476 848.5082866500665 362.5568594220237Q852.0044549826248 354.7343823309113 853.0421305151193 348.8755066320577L853.0421305151193 348.8755066320577L853.7285927904619 344.38955548388907Q852.5791675852372 343.016630933204 850.8071370605157 342.2663117020157Q849.0191422968329 341.51599247082737 847.4067541617261 341.51599247082737L847.4067541617261 341.51599247082737Q842.3460904109452 341.51599247082737 838.2752094757744 347.2152257800664Q834.1883643016421 352.8984948503441 831.8895138911928 361.00832824276273Q829.5906634807434 369.1021973962199 829.5906634807434 375.66349960937754L829.5906634807434 375.66349960937754Q829.5906634807434 378.53706262243924 830.2771257560859 379.97384412897003Q830.97955227039 381.41062563550094 832.5759761665353 381.41062563550094L832.5759761665353 381.41062563550094ZM918.3358678674664 389.7918510902643Q918.0964042830445 389.7918510902643 917.9207976544684 389.61624446168827Q917.761155264854 389.45660207207374 917.761155264854 389.1053888149218L917.761155264854 389.1053888149218Q917.761155264854 388.1794629551575 918.7349738415027 386.6947887317422Q919.7087924181513 385.1941502693655 920.6347182779157 384.28418864856263L920.6347182779157 384.28418864856263Q922.582355431213 382.56005084072564 923.5561740078617 381.3467686796551Q924.5299925845105 380.13348651858456 925.3441687715446 377.83463610813527Q926.1423807196173 375.53578569768587 926.9565569066515 371.06579878847873L926.9565569066515 371.06579878847873L936.151958548449 317.6175267455307L928.3294814573366 317.6175267455307Q919.9322917636117 317.6175267455307 916.7234797323594 319.50130694298224Q913.4987034621457 321.40105137939526 913.4987034621457 326.2382157847158L913.4987034621457 326.2382157847158Q913.4987034621457 329.55877748869824 914.6002359504861 331.6979855095331Q915.685804199865 333.8212292914065 915.685804199865 334.2841922212887L915.685804199865 334.2841922212887Q915.685804199865 335.19415384209157 914.5363789946402 337.1577552343504Q913.3869537894155 339.1053923876478 911.8863153270389 340.6539235669089Q910.4016411036237 342.20245474616985 909.4757152438593 342.20245474616985L909.4757152438593 342.20245474616985Q909.1404662256688 342.20245474616985 908.7892529685167 341.7554560552491L908.7892529685167 341.7554560552491Q907.9910410204441 340.36656726560267 907.4642211347161 338.06771685515326Q906.9533654879496 335.76886644470386 906.9533654879496 333.2465166887942L906.9533654879496 333.2465166887942Q906.9533654879496 326.349965457446 910.4016411036237 321.0658023612047Q913.8499167192978 315.76567502600204 920.1717553480336 312.8442192960559Q926.4935939767693 309.9067993271484 934.8748194315326 309.9067993271484L934.8748194315326 309.9067993271484L954.6545115047742 309.9067993271484Q960.6251368763579 309.9067993271484 963.8499131465717 309.0447304232299Q967.0587251778239 308.18266151931135 968.2720073388945 306.3467740387441Q969.485289499965 304.51088655817694 969.485289499965 301.3978599606934L969.485289499965 301.3978599606934Q969.485289499965 297.9495843450193 968.4476139674705 295.8901975189917Q967.409938434976 293.8148464540027 967.409938434976 293.4795974358122L967.409938434976 293.4795974358122Q967.409938434976 292.665421248778 968.5593636402007 290.7177840954806Q969.7087888454254 288.7541827032218 971.1455703519562 287.1577588070764Q972.582351858487 285.5453706719695 973.5082777182514 285.5453706719695L973.5082777182514 285.5453706719695Q974.0829903208638 285.5453706719695 974.1947399935939 285.8806196901601L974.1947399935939 285.8806196901601Q976.2541268196215 289.217145633104 976.2541268196215 294.8525219864972L976.2541268196215 294.8525219864972Q976.2541268196215 301.63732354511524 972.8058512039473 306.80973696862634Q969.3575755882733 311.9821503921374 962.9878442426533 314.79185644935336Q956.6021486580715 317.6175267455307 948.0932092916165 317.6175267455307L948.0932092916165 317.6175267455307L944.5331840032123 317.6175267455307L934.4278207406119 376.8129248146021Q934.1883571561901 378.6488122951694 933.6136445535778 379.7343805445483Q933.0389319509654 380.83591303288864 932.0012564184709 382.0970879108434L932.0012564184709 382.0970879108434L932.0012564184709 382.3205872563038Q934.07660748346 383.13476344333793 936.5989572393697 383.13476344333793L936.5989572393697 383.13476344333793Q938.0995957017464 383.13476344333793 939.5363772082773 382.56005084072564Q940.9731587148082 381.98533823811323 941.4361216446903 381.98533823811323L941.4361216446903 381.98533823811323Q942.1225839200328 381.98533823811323 942.1225839200328 382.56005084072564L942.1225839200328 382.56005084072564Q942.1225839200328 383.4700124615285 941.1966580602685 384.507687994023L941.1966580602685 384.507687994023Q938.6743083043588 387.3812510070847 936.8863135406758 388.59453316815524Q935.1142830159545 389.7918510902643 933.6136445535778 389.7918510902643L933.6136445535778 389.7918510902643Q932.352469675623 389.7918510902643 929.367156989831 388.88188946946144L929.367156989831 388.88188946946144Q926.1423807196173 387.9559636096971 924.8812058416624 387.9559636096971L924.8812058416624 387.9559636096971Q923.2688177065555 387.9559636096971 920.5070043662241 389.1053888149218L920.5070043662241 389.1053888149218Q918.6711168856568 389.7918510902643 918.3358678674664 389.7918510902643L918.3358678674664 389.7918510902643ZM964.6481250946445 390.8295266227588Q963.8499131465717 390.8295266227588 963.8499131465717 390.2548140201465L963.8499131465717 390.2548140201465Q963.9616628193019 389.5683517448039 964.6002323777601 387.317394051239Q965.2228376972568 385.0824005966354 965.685800627139 382.783550186186L965.685800627139 382.783550186186Q966.3722629024815 379.68648782766394 970.3952511207679 355.5485585179454L970.3952511207679 355.5485585179454Q970.1717517753076 356.8097333959003 973.2688141338296 338.06771685515326L973.2688141338296 338.06771685515326Q975.4559148715488 324.96107666779955 979.1915467885291 314.61624982077734Q982.9271787055092 304.2714229737551 989.600230591397 297.72608499955896L989.600230591397 297.72608499955896Q993.3837552252617 294.16605971115473 996.8958877967815 292.7292782046238Q1000.39205612934 291.292496698093 1004.4150443476263 290.7177840954806L1004.4150443476263 290.7177840954806Q1005.803933137273 290.60603442275044 1007.2886073606882 290.03132182013815Q1008.7892458230648 289.45660921752574 1009.0127451685252 289.45660921752574L1009.0127451685252 289.45660921752574Q1009.8269213555594 289.45660921752574 1009.8269213555594 290.3665708383287L1009.8269213555594 290.3665708383287Q1009.8269213555594 291.6277457162835 1007.7515702905702 293.7030967812725L1007.7515702905702 293.7030967812725Q1006.7138947580758 294.740772313767 1005.803933137273 295.0760213319576Q1004.8780072775086 295.4272345891096 1003.9041887008599 295.5389842618398Q1002.9303701242112 295.65073393457 1002.3556575215988 295.77844784626154L1002.3556575215988 295.77844784626154Q999.1308812513852 296.2254465371823 996.8958877967815 297.550478370983Q994.6449301032166 298.8755102047836 992.234330020037 301.7490732178454L992.234330020037 301.7490732178454Q987.6366291991382 307.4961992439688 985.5133854172648 315.0313200337751Q983.3901416353914 322.55047658461996 981.5542541548242 333.9329789641367L981.5542541548242 333.9329789641367Q981.091291224942 337.60475392527115 980.7400779677902 339.32889173310815L980.7400779677902 339.32889173310815L978.2177282118804 355.42084460625375L978.3294778846106 355.42084460625375Q983.7253906535819 346.11369329172607 990.0472292823177 340.5421738941787Q996.3690679110535 334.9706544966312 1000.9667687319524 334.9706544966312L1000.9667687319524 334.9706544966312Q1005.803933137273 334.9706544966312 1005.803933137273 341.9789554007095L1005.803933137273 341.9789554007095Q1005.803933137273 345.2037316709232 1004.8780072775086 350.24843118274265L1004.8780072775086 350.24843118274265Q1002.6909065397894 361.16797063237726 1002.6909065397894 361.16797063237726L1002.6909065397894 361.16797063237726Q999.3703448358069 378.074099692557 999.3703448358069 380.5964494484668L999.3703448358069 380.5964494484668Q999.3703448358069 382.6718005134558 1000.9667687319524 382.6718005134558L1000.9667687319524 382.6718005134558Q1002.9303701242112 382.6718005134558 1004.542758259318 380.0855938017002Q1006.1391821554633 377.4993870899447 1007.991033874992 373.23693528723646L1007.991033874992 373.23693528723646Q1008.1027835477223 373.1251856145063 1008.3901398490284 372.550473011894Q1008.6774961503346 371.9757604092816 1009.1404590802168 371.9757604092816L1009.1404590802168 371.9757604092816Q1009.9386710282894 371.9757604092816 1009.9386710282894 373.36464919892813L1009.9386710282894 373.36464919892813L1009.7151716828292 375.2005366794953Q1008.900995495795 379.3352745705119 1006.4265384567697 382.959156814762Q1003.9680456567056 386.58303905901204 1000.918876015068 388.7062828408854Q997.8697063734302 390.8295266227588 995.3473566175205 390.8295266227588L995.3473566175205 390.8295266227588Q991.1966544875424 390.8295266227588 991.1966544875424 384.28418864856263L991.1966544875424 384.28418864856263Q991.1966544875424 381.0594123783489 991.9469737187309 376.68521090291057Q992.6972929499191 372.3269736664336 994.0702175006041 365.76567145327596L994.0702175006041 365.76567145327596Q995.4591062902507 359.2203334790799 996.2094255214389 355.0855955880632Q996.943780513666 350.9508576970466 997.0714944253575 347.6143317541028L997.0714944253575 347.6143317541028Q997.0714944253575 345.4272310163836 996.7202811682055 344.6290190683109Q996.3690679110535 343.81484288127666 994.7726440149081 343.81484288127666L994.7726440149081 343.81484288127666Q991.1966544875424 343.81484288127666 987.1257735523717 348.4764006580213Q983.0389283782395 353.12199419580446 979.8301163469872 359.9067957544224Q976.6053400767736 366.6915973130403 975.4559148715488 372.550473011894L975.4559148715488 372.550473011894L973.6200273909816 382.56005084072564Q973.1570644610994 385.5453635265175 970.1717517753076 388.1794629551575Q967.1864390895156 390.8295266227588 964.6481250946445 390.8295266227588L964.6481250946445 390.8295266227588ZM1023.6200238182555 390.8295266227588Q1017.7611481194018 390.8295266227588 1017.7611481194018 379.68648782766394L1017.7611481194018 379.68648782766394Q1017.7611481194018 368.9904477234897 1022.4067416571851 358.58176392062165Q1027.0682994339295 348.1890443567151 1035.002526197772 341.5798494266732Q1042.9207887226535 334.9706544966312 1052.116190364451 334.9706544966312L1052.116190364451 334.9706544966312Q1056.8416050970413 334.9706544966312 1060.2898807127153 336.45532872004645L1060.2898807127153 336.45532872004645Q1058.7892422503387 342.3301686578615 1058.2145296477265 345.07601775923155L1058.2145296477265 345.07601775923155L1055.803929564547 357.4961956712428Q1052.579153294333 372.21522399370343 1051.8926910189907 377.83463610813527L1051.8926910189907 377.83463610813527Q1051.7809413462605 378.6488122951694 1051.7809413462605 379.7982375003941L1051.7809413462605 379.7982375003941Q1051.7809413462605 382.3205872563038 1053.2656155696757 382.3205872563038L1053.2656155696757 382.3205872563038Q1055.1174672892043 382.3205872563038 1056.71389118535 379.97384412897003Q1058.3262793204567 377.6111367626749 1060.4016303854455 373.23693528723646L1060.4016303854455 373.23693528723646Q1060.5133800581757 373.1251856145063 1060.800736359482 372.550473011894Q1061.0880926607883 371.9757604092816 1061.5510555906703 371.9757604092816L1061.5510555906703 371.9757604092816Q1062.2375178660127 371.9757604092816 1062.2375178660127 373.36464919892813L1062.2375178660127 373.36464919892813L1062.0140185205523 375.2005366794953Q1061.1998423335185 378.98406131336 1058.725385294493 382.6718005134558Q1056.2668924944292 386.3435754745902 1053.2177228527912 388.59453316815524Q1050.1685532111537 390.8295266227588 1047.757953127974 390.8295266227588L1047.757953127974 390.8295266227588Q1043.7349649096877 390.8295266227588 1043.7349649096877 384.28418864856263L1043.7349649096877 384.28418864856263Q1043.7349649096877 381.7458746536915 1044.3096775123 379.11177522505153L1044.3096775123 379.11177522505153L1046.2573146655973 369.1021973962199L1046.145564992867 369.1021973962199Q1040.6219383122038 378.7605619678996 1034.363956639314 384.7950442953292Q1028.1059749664241 390.8295266227588 1023.6200238182555 390.8295266227588L1023.6200238182555 390.8295266227588ZM1029.0159365872269 381.41062563550094Q1032.2407128574407 381.41062563550094 1036.4393077043032 376.39785460160437Q1040.6219383122038 371.4010478066693 1044.2458205564542 364.16924755713063Q1047.869702800704 356.9214830686305 1049.2426273513893 351.174357042507L1049.2426273513893 351.174357042507L1051.0944790709177 343.81484288127666Q1047.6462034552437 341.51599247082737 1043.846714582418 341.51599247082737L1043.846714582418 341.51599247082737Q1038.8978005043668 341.51599247082737 1034.8269195691964 347.2152257800664Q1030.740074395064 352.8984948503441 1028.4412239846147 361.00832824276273Q1026.1423735741653 369.1021973962199 1026.1423735741653 375.66349960937754L1026.1423735741653 375.66349960937754Q1026.1423735741653 378.53706262243924 1026.7809431326236 379.97384412897003Q1027.40354845212 381.41062563550094 1029.0159365872269 381.41062563550094L1029.0159365872269 381.41062563550094ZM1072.8058440584955 390.8295266227588Q1071.7841327649626 390.8295266227588 1071.7841327649626 390.1430643474163L1071.7841327649626 390.1430643474163Q1071.7841327649626 389.6801014175341 1072.2949884117288 388.1315702382731Q1072.8058440584955 386.58303905901204 1073.7317699182595 382.783550186186L1073.7317699182595 382.783550186186Q1076.0306203287091 373.23693528723646 1079.2553965989227 350.9508576970466L1079.2553965989227 350.9508576970466Q1079.9418588742656 346.5766562216083 1079.9418588742656 344.8525184137712L1079.9418588742656 344.8525184137712Q1079.9418588742656 343.35187995139455 1079.2553965989227 343.35187995139455L1079.2553965989227 343.35187995139455Q1077.2917952066641 343.35187995139455 1073.3805566611077 350.24843118274265L1073.3805566611077 350.24843118274265Q1072.8058440584955 351.28610671523717 1072.3588453675748 352.0364259464255Q1071.8958824376928 352.7867451776139 1071.6085261363864 353.12199419580446Q1071.3211698350801 353.4732074529564 1070.9699565779283 353.4732074529564L1070.9699565779283 353.4732074529564Q1070.0599949571256 353.4732074529564 1070.0599949571256 352.3237822477317L1070.0599949571256 352.3237822477317Q1070.0599949571256 350.0249318372823 1072.5823447130351 345.7784442735355Q1075.1046944689447 341.51599247082737 1078.552970084619 338.2433234837293Q1082.0012457002929 334.9706544966312 1084.7630590406245 334.9706544966312L1084.7630590406245 334.9706544966312Q1086.5989465211917 334.9706544966312 1087.4131227082257 336.583042631738Q1088.2113346562985 338.17946652788345 1088.2113346562985 340.6060308500245L1088.2113346562985 340.6060308500245Q1088.2113346562985 344.38955548388907 1086.3754471757313 355.42084460625375L1086.3754471757313 355.42084460625375L1086.4871968484615 355.42084460625375Q1091.771359944703 346.11369329172607 1098.0931985734385 340.5421738941787Q1104.4150372021745 334.9706544966312 1109.012738023073 334.9706544966312L1109.012738023073 334.9706544966312Q1113.8499024283938 334.9706544966312 1113.8499024283938 341.7554560552491L1113.8499024283938 341.7554560552491Q1113.8499024283938 344.2778058111589 1112.8122268958991 350.24843118274265L1112.8122268958991 350.24843118274265L1110.1621632282977 364.04153364543896Q1107.288600215236 378.6488122951694 1107.288600215236 380.5964494484668L1107.288600215236 380.5964494484668Q1107.288600215236 381.41062563550094 1107.703670428234 382.0332309549977Q1108.1027764022701 382.6718005134558 1109.012738023073 382.6718005134558L1109.012738023073 382.6718005134558Q1112.1257646205568 382.6718005134558 1116.148752838843 373.23693528723646L1116.148752838843 373.23693528723646Q1116.4840018570335 371.9757604092816 1117.2981780440678 371.9757604092816L1117.2981780440678 371.9757604092816Q1117.9846403194103 371.9757604092816 1117.9846403194103 373.36464919892813L1117.9846403194103 373.36464919892813Q1117.9846403194103 374.38636049246116 1117.8728906466802 375.2005366794953L1117.8728906466802 375.2005366794953Q1117.0587144596461 379.3352745705119 1114.5363647037361 382.959156814762Q1112.0140149478266 386.58303905901204 1108.900988350343 388.7062828408854Q1105.803925991821 390.8295266227588 1103.2656119969497 390.8295266227588L1103.2656119969497 390.8295266227588Q1100.85501191377 390.8295266227588 1099.9929430098516 388.8180325136156Q1099.1308741059331 386.8065384044724 1099.1308741059331 384.3959383212928L1099.1308741059331 384.3959383212928Q1099.1308741059331 379.2235248977817 1102.0044371189947 365.76567145327596L1102.0044371189947 365.76567145327596Q1104.7662504593263 352.6749955048837 1104.9897498047867 347.6143317541028L1104.9897498047867 347.6143317541028Q1105.1174637164784 345.53898068911377 1104.7023935034806 344.6769117851953Q1104.3032875294443 343.81484288127666 1102.818613306029 343.81484288127666L1102.818613306029 343.81484288127666Q1099.2426237786633 343.81484288127666 1095.1717428434927 348.52429337490565Q1091.08489766936 353.249708107496 1087.876085638108 360.0824023829984Q1084.6513093678943 366.91509665850066 1083.6136338354 372.550473011894L1083.6136338354 372.550473011894L1081.7777463548325 382.56005084072564Q1081.09128407949 385.5453635265175 1078.105971393698 388.1794629551575Q1075.1046944689447 390.8295266227588 1072.8058440584955 390.8295266227588L1072.8058440584955 390.8295266227588ZM1126.4935796858654 390.8295266227588Q1125.679403498831 390.8295266227588 1125.679403498831 390.1430643474163L1125.679403498831 390.1430643474163Q1125.679403498831 389.6801014175341 1126.4935796858654 387.4930006798149Q1127.291791633938 385.30589994209566 1127.53125521836 383.58176213425867L1127.53125521836 383.58176213425867L1134.8748051406287 338.06771685515326Q1139.2490066160672 309.332086724536 1151.094471925466 297.72608499955896L1151.094471925466 297.72608499955896Q1154.7662468866004 294.16605971115473 1158.2783794581203 292.7292782046238Q1161.7745477906788 291.292496698093 1165.6857863362347 290.7177840954806L1165.6857863362347 290.7177840954806Q1167.2981744713418 290.3665708383287 1168.6710990220267 289.9036079084465Q1170.0599878116732 289.45660921752574 1170.3952368298637 289.45660921752574L1170.3952368298637 289.45660921752574Q1171.3211626896282 289.45660921752574 1171.3211626896282 290.3665708383287L1171.3211626896282 290.3665708383287Q1171.3211626896282 291.75545962797514 1169.134061951909 293.7030967812725L1169.134061951909 293.7030967812725Q1167.8728870739542 294.740772313767 1166.8990684973055 295.0760213319576Q1165.909285681695 295.4272345891096 1164.9993240608924 295.5389842618398Q1164.073398201128 295.65073393457 1163.7381491829374 295.77844784626154L1163.7381491829374 295.77844784626154Q1160.5133729127238 296.2254465371823 1158.2145225022746 297.6143353268288Q1155.915672091825 298.9872598775138 1153.6168216813758 301.7490732178454L1153.6168216813758 301.7490732178454Q1148.7956215150166 307.7196985894292 1146.6085207772974 315.71778230911764Q1144.4214200395782 323.69990178984466 1142.8090319044713 335.30590351482175L1142.8090319044713 335.30590351482175L1142.234319301859 339.32889173310815L1138.897793358915 360.7209719414565L1139.0255072706068 360.7209719414565L1141.7713563719767 355.99555720886616Q1148.667907603325 343.92659255400696 1153.8403210268361 339.4566056447998Q1159.0127344503471 334.9706544966312 1163.8498988556676 334.9706544966312L1163.8498988556676 334.9706544966312Q1166.8352115414596 334.9706544966312 1168.6232063051425 336.2956863304319Q1170.3952368298637 337.60475392527115 1170.3952368298637 339.79185466299026L1170.3952368298637 339.79185466299026Q1170.3952368298637 341.51599247082737 1169.5331679259452 343.24013027866437Q1168.6710990220267 344.96426808650136 1167.8728870739542 344.96426808650136L1167.8728870739542 344.96426808650136Q1167.633423489532 344.96426808650136 1167.4099241440717 344.740768741041Q1167.1864247986116 344.50130515661925 1166.9469612141897 344.38955548388907L1166.9469612141897 344.38955548388907Q1165.6857863362347 343.016630933204 1164.5363611310102 342.37806137474587Q1163.3869359257856 341.7554560552491 1162.0140113751004 341.7554560552491L1162.0140113751004 341.7554560552491Q1158.438021847735 341.7554560552491 1155.0536031879064 345.0281250423472Q1151.6691845280782 348.3007940294453 1147.5184823981003 354.6226326581811L1147.5184823981003 354.6226326581811L1143.7349577642358 360.3697586843045Q1148.3326585851344 369.78865967156236 1152.531253431997 375.95085591068363Q1156.7138840398977 382.0970879108434 1159.0127344503471 382.0970879108434L1159.0127344503471 382.0970879108434Q1160.976335842606 382.0970879108434 1165.1110737336226 376.23821221198983L1165.1110737336226 376.23821221198983Q1166.036999593387 375.2005366794953 1166.3722486115776 375.2005366794953L1166.3722486115776 375.2005366794953Q1167.1864247986116 375.2005366794953 1167.1864247986116 376.4617115574502L1167.1864247986116 376.4617115574502L1166.9469612141897 377.83463610813527Q1166.6117121959992 379.7982375003941 1164.711967759586 382.959156814762Q1162.8122233231732 386.1200761291298 1160.4495159568778 388.46681925646357Q1158.1027728295444 390.8295266227588 1156.0274217645551 390.8295266227588L1156.0274217645551 390.8295266227588Q1153.6168216813758 390.8295266227588 1150.8550083410441 386.9182880772026Q1148.0931950007125 383.0070495316464 1142.9207815772015 373.6998982171187L1142.9207815772015 373.6998982171187L1139.4725059615273 367.1545602429225Q1139.0255072706068 368.06452186372536 1138.0995814108423 369.78865967156236Q1137.173655551078 371.51279747939947 1137.173655551078 372.08751008201176L1137.173655551078 372.08751008201176L1135.449517743241 382.43233692903397Q1135.0025190523202 385.43361385378734 1132.001242127567 388.1315702382731Q1129.015929441775 390.8295266227588 1126.4935796858654 390.8295266227588L1126.4935796858654 390.8295266227588ZM1192.585528986285 328.40935228347354Q1191.4361037810604 328.40935228347354 1191.5478534537906 327.25992707824895L1191.5478534537906 327.25992707824895L1192.9207780044753 319.21395064167604Q1193.495490607088 315.8933889376936 1195.3952350435009 314.10539417401077Q1197.2949794799138 312.31739941032794 1200.1685424929756 312.31739941032794L1200.1685424929756 312.31739941032794L1200.6315054228576 312.31739941032794Q1201.3179676982004 312.31739941032794 1201.4935743267765 312.55686299474974Q1201.6691809553522 312.7803623402101 1201.5414670436608 313.46682461555264L1201.5414670436608 313.46682461555264L1200.2802921657058 321.40105137939526Q1199.8173292358238 324.625827649609 1197.8696920825264 326.525572086022Q1195.922054929229 328.40935228347354 1193.0484919161672 328.40935228347354L1193.0484919161672 328.40935228347354L1192.585528986285 328.40935228347354ZM1185.800727427667 390.8295266227588Q1182.1289524665326 390.8295266227588 1182.1289524665326 385.5453635265175L1182.1289524665326 385.5453635265175Q1182.1289524665326 382.8952998589162 1182.815414741875 379.4470242432421L1182.815414741875 379.4470242432421L1188.3230771835767 348.7637569593275Q1188.786040113459 345.7784442735355 1188.786040113459 345.07601775923155L1188.786040113459 345.07601775923155Q1188.786040113459 343.35187995139455 1187.7483645809643 343.35187995139455L1187.7483645809643 343.35187995139455Q1186.3754400302792 343.35187995139455 1184.427802876982 345.53898068911377Q1182.4642014847232 347.726081426833 1180.1653510742738 352.43553192046187L1180.1653510742738 352.43553192046187Q1179.7023881443915 353.8244207101084 1179.0159258690492 353.8244207101084L1179.0159258690492 353.8244207101084Q1178.3294635937066 353.8244207101084 1178.3294635937066 352.6749955048837L1178.3294635937066 352.6749955048837Q1178.3294635937066 349.9131821645522 1180.803920632732 345.6028376449596Q1183.2783776717572 341.292493125367 1186.8862956770458 338.1315738109991Q1190.510177921296 334.9706544966312 1193.6232045187794 334.9706544966312L1193.6232045187794 334.9706544966312Q1197.1832298071836 334.9706544966312 1197.1832298071836 340.0313182474121L1197.1832298071836 340.0313182474121Q1197.1832298071836 342.4419183305917 1196.4967675318412 346.3531568761479L1196.4967675318412 346.3531568761479L1190.510177921296 379.55877391597227L1190.2866785758356 381.0594123783489Q1190.2866785758356 382.3205872563038 1191.3243541083302 382.3205872563038L1191.3243541083302 382.3205872563038Q1192.697278659015 382.3205872563038 1194.6449158123123 380.0855938017002Q1196.6085172045714 377.83463610813527 1198.9073676150206 373.23693528723646L1198.9073676150206 373.23693528723646Q1199.4820802176332 371.9757604092816 1200.0567928202454 371.9757604092816L1200.0567928202454 371.9757604092816Q1200.7432550955878 371.9757604092816 1200.7432550955878 373.4763988716583L1200.7432550955878 373.4763988716583Q1200.7432550955878 376.11049830029816 1198.2687980565624 380.3090931471606Q1195.7943410175371 384.507687994023 1192.234315729133 387.6686073083909Q1188.6742904407288 390.8295266227588 1185.800727427667 390.8295266227588L1185.800727427667 390.8295266227588Z " fill="#7d141d" transform="matrix(0.7281986635942626,0,0,0.7281986635942626,0,37.451358445603574)"/></g></svg>