<?xml version="1.0" encoding="iso-8859-1"?>
<!-- Uploaded to: SVG Repo, www.svgrepo.com, Generator: SVG Repo Mixer Tools -->
<svg height="800px" width="800px" version="1.1" id="Layer_1" xmlns="http://www.w3.org/2000/svg" xmlns:xlink="http://www.w3.org/1999/xlink" 
	 viewBox="0 0 512 512" xml:space="preserve">
<path style="fill:#EAFFFF;" d="M445.217,512H44.522c-12.295,0-22.261-9.966-22.261-22.261V97.948
	c0-41.8,33.887-75.687,75.687-75.687h347.27c24.588,0,44.522,19.933,44.522,44.522v400.696C489.739,492.066,469.806,512,445.217,512
	z"/>
<path style="fill:#C5EAD4;" d="M226.649,128c0,62.588-50.737,113.325-113.325,113.325S0,190.588,0,128S50.737,14.675,113.325,14.675
	S226.649,65.412,226.649,128z"/>
<path style="fill:#AED574;" d="M378.435,500.87H22.261v-89.043h356.174V500.87z"/>
<path style="fill:#DDB900;" d="M512,439.652L512,439.652c0,33.81-27.408,61.217-61.217,61.217l0,0c-1.17,0-2.331-0.04-3.484-0.105
	c-0.686,0.063-1.378,0.105-2.081,0.105H322.783c-12.295,0-22.261-9.966-22.261-22.261v-77.913c0-12.295,9.966-22.261,22.261-22.261
	h122.435c0.702,0,1.395,0.041,2.081,0.105c1.154-0.065,2.314-0.105,3.484-0.105l0,0C484.592,378.435,512,405.842,512,439.652z"/>
<path style="fill:#F4F170;" d="M378.435,439.652L378.435,439.652c0,33.81-27.408,61.217-61.217,61.217l0,0
	c-33.81,0-61.217-27.408-61.217-61.217l0,0c0-33.81,27.408-61.217,61.217-61.217l0,0
	C351.027,378.435,378.435,405.842,378.435,439.652z"/>
<path style="fill:#CC9600;" d="M478.609,442.435c0,38.358-31.208,69.565-69.565,69.565c-1.066,0-2.169-0.028-3.356-0.087
	c-0.775,0.058-1.503,0.087-2.209,0.087c-4.207,0-7.677-3.115-8.254-7.162c-9.266,4.578-19.686,7.162-30.702,7.162
	c-1.066,0-2.169-0.028-3.356-0.087c-0.775,0.058-1.503,0.087-2.209,0.087c-4.61,0-8.348-3.738-8.348-8.348s3.738-8.348,8.348-8.348
	c0.38,0,0.808-0.023,1.31-0.069c0.413-0.038,0.825-0.046,1.238-0.023c1.102,0.062,2.088,0.092,3.016,0.092
	c29.152,0,52.87-23.718,52.87-52.87c0-4.61,3.738-8.348,8.348-8.348c4.61,0,8.348,3.738,8.348,8.348
	c0,21.134-9.486,40.084-24.41,52.854c28.861-0.343,52.237-23.915,52.237-52.854c0-4.61,3.738-8.348,8.348-8.348
	C474.871,434.087,478.609,437.825,478.609,442.435z"/>
<path style="fill:#DDB900;" d="M333.913,439.652L333.913,439.652c0,9.22-7.475,16.696-16.696,16.696l0,0
	c-9.22,0-16.696-7.475-16.696-16.696l0,0c0-9.22,7.475-16.696,16.696-16.696l0,0C326.438,422.957,333.913,430.432,333.913,439.652z"
	/>
<path style="fill:#84837A;" d="M121.672,119.652v378.435c0,4.61-3.738,8.348-8.348,8.348c-4.61,0-8.348-3.738-8.348-8.348V119.652
	c0-4.61,3.738-8.348,8.348-8.348C117.935,111.304,121.672,115.042,121.672,119.652z"/>
<path style="fill:#D3D5BB;" d="M113.325,111.304L113.325,111.304c-14.898,0-26.539-12.863-25.057-27.688l6.701-67.004
	C95.911,7.181,103.847,0,113.325,0s17.414,7.181,18.357,16.613l6.701,67.004C139.864,98.441,128.223,111.304,113.325,111.304z
	 M218.967,167.796l-54.677-39.305c-12.097-8.696-29.058-5.047-36.507,7.856l0,0c-7.45,12.902-2.129,29.416,11.45,35.544
	l61.378,27.699c8.638,3.899,18.826,0.617,23.565-7.591C228.915,183.791,226.664,173.329,218.967,167.796z M98.866,136.348
	c-7.45-12.902-24.41-16.552-36.507-7.856L7.682,167.796c-7.696,5.532-9.947,15.996-5.209,24.204
	c4.739,8.209,14.927,11.49,23.565,7.591l61.377-27.699C100.995,165.763,106.315,149.25,98.866,136.348L98.866,136.348z"/>
<path style="fill:#B9BAA6;" d="M141.151,128c0,15.368-12.458,27.826-27.826,27.826S85.498,143.368,85.498,128
	s12.458-27.826,27.826-27.826S141.151,112.632,141.151,128z"/>
<path style="fill:#A0A092;" d="M124.455,128c0,6.147-4.983,11.13-11.13,11.13c-6.147,0-11.13-4.983-11.13-11.13
	c0-6.147,4.983-11.13,11.13-11.13C119.472,116.87,124.455,121.853,124.455,128z"/>
<path style="fill:#93AE49;" d="M512,503.652c0,4.61-3.738,8.348-8.348,8.348H8.348C3.738,512,0,508.262,0,503.652
	s3.738-8.348,8.348-8.348h5.565v-91.826c0-4.61,3.738-8.348,8.348-8.348s8.348,3.738,8.348,8.348v91.826h27.826V436.87
	c0-4.61,3.738-8.348,8.348-8.348s8.348,3.738,8.348,8.348v58.435h72.348v-91.826c0-4.61,3.738-8.348,8.348-8.348
	s8.348,3.738,8.348,8.348v91.826H192V436.87c0-4.61,3.738-8.348,8.348-8.348c4.61,0,8.348,3.738,8.348,8.348v58.435h16.696v-13.913
	c0-4.61,3.738-8.348,8.348-8.348s8.348,3.738,8.348,8.348v13.913h261.565C508.262,495.304,512,499.042,512,503.652z"/>
<path style="fill:#C5EAD4;" d="M409.043,267.13c0,4.61-3.738,8.348-8.348,8.348H178.087c-4.61,0-8.348-3.738-8.348-8.348
	s3.738-8.348,8.348-8.348h222.609C405.306,258.783,409.043,262.52,409.043,267.13z M503.652,258.783h-69.565
	c-4.61,0-8.348,3.738-8.348,8.348s3.738,8.348,8.348,8.348h69.565c4.61,0,8.348-3.738,8.348-8.348S508.262,258.783,503.652,258.783z
	 M233.739,230.957h77.913c4.61,0,8.348-3.738,8.348-8.348c0-4.61-3.738-8.348-8.348-8.348h-77.913c-4.61,0-8.348,3.738-8.348,8.348
	C225.391,227.219,229.129,230.957,233.739,230.957z M345.043,230.957h33.391c4.61,0,8.348-3.738,8.348-8.348
	c0-4.61-3.738-8.348-8.348-8.348h-33.391c-4.61,0-8.348,3.738-8.348,8.348C336.696,227.219,340.433,230.957,345.043,230.957z
	 M267.13,186.435h33.391c4.61,0,8.348-3.738,8.348-8.348c0-4.61-3.738-8.348-8.348-8.348H267.13c-4.61,0-8.348,3.738-8.348,8.348
	C258.783,182.697,262.52,186.435,267.13,186.435z"/>
<path style="fill:#FFFF81;" d="M417.391,0C469.642,0,512,42.358,512,94.609s-42.358,94.609-94.609,94.609
	s-94.609-42.358-94.609-94.609S365.141,0,417.391,0z"/>
<path style="fill:#FFF145;" d="M417.391,44.522c27.662,0,50.087,22.424,50.087,50.087s-22.424,50.087-50.087,50.087
	c-27.662,0-50.087-22.424-50.087-50.087S389.729,44.522,417.391,44.522z"/>
</svg>