<?xml version="1.0" encoding="iso-8859-1"?>
<!-- Uploaded to: SVG Repo, www.svgrepo.com, Generator: SVG Repo Mixer Tools -->
<svg version="1.1" id="Layer_1" xmlns="http://www.w3.org/2000/svg" xmlns:xlink="http://www.w3.org/1999/xlink" 
	 viewBox="0 0 512 512" xml:space="preserve">
<path style="fill:#E6E6E6;" d="M222.423,0L222.423,0c-4.73,0-8.565,3.835-8.565,8.565v440.628h17.129V8.565
	C230.988,3.835,227.155,0,222.423,0z"/>
<path style="fill:#D65A4D;" d="M323.97,478.884H130.825l0,0c0-18.921,15.338-34.259,34.259-34.259h124.627
	C308.633,444.625,323.97,459.963,323.97,478.884L323.97,478.884z"/>
<path style="fill:#D3463C;" d="M289.711,444.625h-53.672c18.921,0,34.259,15.338,34.259,34.259l0,0h53.672l0,0
	C323.97,459.963,308.633,444.625,289.711,444.625z"/>
<path style="fill:#953A3C;" d="M337.125,477.741h-221.37c-16.804,0-30.427,13.622-30.427,30.427v1.916
	c0,1.059,0.858,1.916,1.916,1.916H367.55c1.059,0,1.916-0.858,1.916-1.916l0,0C369.467,492.222,354.987,477.741,337.125,477.741z"/>
<path style="fill:#932228;" d="M367.59,512c1.075,0,1.923-0.884,1.92-1.957c-0.062-18.092-12.608-32.302-30.874-32.302h-57.098
	c18.921,0,34.259,15.338,34.259,34.259l0,0H367.59z"/>
<path style="fill:#FF705B;" d="M426.671,70.516H222.423V23.696h187.601c9.194,0,16.646,7.452,16.646,16.646V70.516z"/>
<rect x="222.42" y="70.516" style="fill:#E6E6E6;" width="204.252" height="46.821"/>
<path style="fill:#42A555;" d="M410.024,164.157H222.423v-46.821h204.247v30.174C426.671,156.705,419.218,164.157,410.024,164.157z"
	/>
<rect x="213.855" y="23.696" style="fill:#F44A46;" width="17.129" height="46.821"/>
<rect x="213.855" y="70.516" style="fill:#D1D1D1;" width="17.129" height="46.821"/>
<rect x="213.855" y="117.337" style="fill:#427451;" width="17.129" height="46.821"/>
<circle style="fill:#5388B4;" cx="325.482" cy="93.927" r="23.41"/>
</svg>