<?xml version="1.0" encoding="iso-8859-1"?>
<!-- Uploaded to: SVG Repo, www.svgrepo.com, Generator: SVG Repo Mixer Tools -->
<svg height="800px" width="800px" version="1.1" id="Layer_1" xmlns="http://www.w3.org/2000/svg" xmlns:xlink="http://www.w3.org/1999/xlink" 
	 viewBox="0 0 512 512" xml:space="preserve">
<polygon style="fill:#AA8B65;" points="0.187,481.592 0.187,29.041 39.512,52.062 52.46,85.08 79.003,61.773 112.02,61.773 
	126.57,103.457 385.617,103.457 432.303,57.912 464.64,76.391 512,29.041 512,481.592 "/>
<polygon style="opacity:0.52;fill:#836948;enable-background:new    ;" points="464.452,77.757 447.578,68.115 262.324,331.059 
	0,423.901 0,482.959 511.813,482.959 511.813,30.408 "/>
<path style="fill:#ACD4F3;" d="M371.291,446.922c0,0,3.869-135.587,3.632-149.558c-0.304-17.947-5.398-54.408-4.274-71.674
	c0.942-14.477,10.13-41.335,12.54-55.297c2.856-16.534,1.907-66.935,1.907-66.935h-40.42h-40.056H126.57
	c0,0,1.503,50.401,4.358,66.935c2.411,13.962,11.598,40.82,12.54,55.297c1.124,17.266-3.97,53.728-4.274,71.674
	c-0.237,13.971,3.401,145.219,3.401,145.219L371.291,446.922z"/>
<g>
	<path style="fill:#52A2E7;" d="M179.997,238.578c-4.326,0-7.834-3.507-7.834-7.834v-96.178c0-4.326,3.507-7.834,7.834-7.834
		s7.834,3.507,7.834,7.834v96.178C187.831,235.071,184.324,238.578,179.997,238.578z"/>
	<path style="fill:#52A2E7;" d="M179.997,374.773c-4.326,0-7.834-3.507-7.834-7.834V264.114c0-4.326,3.507-7.834,7.834-7.834
		s7.834,3.507,7.834,7.834v102.824C187.831,371.265,184.325,374.773,179.997,374.773z"/>
	<path style="fill:#52A2E7;" d="M217.936,204.858c-4.326,0-7.834-3.507-7.834-7.834v-62.457c0-4.326,3.507-7.834,7.834-7.834
		s7.834,3.507,7.834,7.834v62.457C225.77,201.35,222.263,204.858,217.936,204.858z"/>
	<path style="fill:#52A2E7;" d="M333.432,249.619c-4.327,0-7.834-3.507-7.834-7.834v-93.844c0-4.326,3.506-7.834,7.834-7.834
		c4.327,0,7.834,3.507,7.834,7.834v93.844C341.265,246.111,337.759,249.619,333.432,249.619z"/>
	<path style="fill:#52A2E7;" d="M217.936,378.925c-4.326,0-7.834-3.507-7.834-7.834V222.053c0-4.326,3.507-7.834,7.834-7.834
		s7.834,3.507,7.834,7.834v149.039C225.77,375.418,222.263,378.925,217.936,378.925z"/>
	<path style="fill:#52A2E7;" d="M258.669,233.52c-4.326,0-7.834-3.507-7.834-7.834v-91.407c0-4.326,3.507-7.834,7.834-7.834
		c4.327,0,7.834,3.507,7.834,7.834v91.407C266.503,230.013,262.997,233.52,258.669,233.52z"/>
	<path style="fill:#52A2E7;" d="M258.669,411.407c-4.326,0-7.834-3.507-7.834-7.834V258.544c0-4.326,3.507-7.834,7.834-7.834
		c4.327,0,7.834,3.507,7.834,7.834v145.03C266.503,407.899,262.997,411.407,258.669,411.407z"/>
	<path style="fill:#52A2E7;" d="M296.609,198.361c-4.327,0-7.834-3.507-7.834-7.834v-58.836c0-4.326,3.506-7.834,7.834-7.834
		c4.327,0,7.834,3.507,7.834,7.834v58.836C304.443,194.854,300.936,198.361,296.609,198.361z"/>
	<path style="fill:#52A2E7;" d="M296.609,389.323c-4.327,0-7.834-3.508-7.834-7.834V222.053c0-4.326,3.506-7.834,7.834-7.834
		c4.327,0,7.834,3.507,7.834,7.834v159.436C304.443,385.815,300.936,389.323,296.609,389.323z"/>
	<path style="fill:#52A2E7;" d="M332.137,358.405c-4.327,0-7.834-3.507-7.834-7.834v-78.347c0-4.326,3.506-7.834,7.834-7.834
		c4.327,0,7.834,3.507,7.834,7.834v78.347C339.971,354.898,336.465,358.405,332.137,358.405z"/>
	<path style="fill:#52A2E7;" d="M512,436.267H409.553c0-15.339-12.435-27.774-27.774-27.774s-27.774,12.435-27.774,27.774
		l-0.354,1.493c0-17.241-13.977-31.217-31.217-31.217c-17.241,0-31.217,13.977-31.217,31.217c0-18.881-15.306-34.187-34.187-34.187
		s-34.187,15.306-34.187,34.187c0-17.241-13.977-31.217-31.217-31.217s-31.217,13.977-31.217,31.217v-1.722
		c0-15.339-12.435-27.774-27.774-27.774s-27.774,12.435-27.774,27.774H0.187v45.553H512V436.267z"/>
</g>
<path style="fill:#B6E892;" d="M459.991,295.403c-24.116-0.661-44.693-18.137-44.693-18.137s19.446-24.736,46.149-27.334
	C488.151,247.334,512,267.858,512,267.858"/>
<path style="fill:#A4E276;" d="M463.231,290.979c17.045-20.719,48.422-23.07,48.422-23.07s3.74,31.241-13.304,51.961
	c-17.045,20.719-48.422,23.07-48.422,23.07s-3.242-27.08,10.066-47.536C460.977,293.887,462.054,292.408,463.231,290.979z"/>
<path style="fill:#DCF4CA;" d="M463.424,249.783c-0.522-0.505-1.036-1.023-1.54-1.556c-18.43-19.497-16.849-50.921-16.849-50.921
	s31.464,0.186,49.894,19.683c18.43,19.497,16.849,50.921,16.849,50.921"/>
<path style="fill:#B6E892;" d="M52.196,295.403c24.116-0.661,44.693-18.137,44.693-18.137s-19.446-24.736-46.149-27.334
	c-26.703-2.598-50.553,17.926-50.553,17.926"/>
<path style="fill:#A4E276;" d="M48.958,290.979c-17.045-20.719-48.422-23.07-48.422-23.07s-3.74,31.241,13.304,51.961
	c17.045,20.719,48.422,23.07,48.422,23.07s3.242-27.08-10.066-47.536C51.21,293.887,50.133,292.408,48.958,290.979z"/>
<path style="fill:#DCF4CA;" d="M48.763,249.783c0.522-0.505,1.036-1.023,1.54-1.556c18.43-19.497,16.849-50.921,16.849-50.921
	s-31.464,0.186-49.896,19.683S0.408,267.909,0.408,267.909"/>
</svg>